<svg width="49" height="64" xmlns="http://www.w3.org/2000/svg" preserveAspectRatio="xMidYMid">

 <g>
  <title>background</title>
  <rect fill="none" id="canvas_background" height="402" width="582" y="-1" x="-1"/>
 </g>
 <g>
  <title>Layer 1</title>
  <path fill-rule="evenodd" fill="#647f94" id="svg_2" d="m49,16.842l0,42.105c0,2.791 -2.27,5.053 -5.069,5.053l-38.862,0c-2.8,0 -5.069,-2.262 -5.069,-5.053l0,-53.894c0,-2.791 2.269,-5.053 5.069,-5.053l27.034,0l16.897,16.842z" class="cls-1"/>
  <path fill="#ffffff" fill-rule="evenodd" id="svg_3" d="m27.595,37.684c-0.484,0 -0.85,0.083 -1.098,0.249c-0.248,0.166 -0.372,0.378 -0.372,0.637c0,0.248 0.112,0.445 0.336,0.593c0.224,0.148 0.665,0.303 1.325,0.466c1.083,0.265 1.856,0.529 2.319,0.791c0.462,0.263 0.813,0.588 1.052,0.977c0.239,0.389 0.359,0.867 0.359,1.434c0,0.627 -0.159,1.164 -0.477,1.61c-0.317,0.447 -0.768,0.787 -1.352,1.022c-0.584,0.236 -1.251,0.353 -2.001,0.353c-1.991,0 -3.346,-0.552 -4.066,-1.655l1.743,-1.221c0.284,0.386 0.612,0.643 0.984,0.773c0.373,0.13 0.77,0.195 1.194,0.195c1.113,0 1.67,-0.323 1.67,-0.968c0,-0.284 -0.158,-0.502 -0.472,-0.656c-0.315,-0.154 -0.808,-0.312 -1.479,-0.475c-1.265,-0.277 -2.154,-0.67 -2.669,-1.176c-0.514,-0.507 -0.771,-1.164 -0.771,-1.972c0,-0.838 0.322,-1.529 0.966,-2.072c0.645,-0.542 1.593,-0.814 2.846,-0.814c0.853,0 1.604,0.136 2.255,0.407c0.65,0.272 1.151,0.679 1.502,1.221l-1.752,1.24c-0.417,-0.639 -1.098,-0.959 -2.042,-0.959zm-6.797,-3.04c-0.497,0 -0.835,-0.102 -1.017,-0.307c-0.181,-0.205 -0.272,-0.498 -0.272,-0.878c0,-0.422 0.097,-0.725 0.29,-0.909c0.194,-0.184 0.527,-0.276 0.999,-0.276c0.471,0 0.809,0.089 1.011,0.267c0.203,0.178 0.304,0.484 0.304,0.918c0,0.441 -0.108,0.748 -0.326,0.923c-0.218,0.175 -0.548,0.262 -0.989,0.262zm-1.153,1.403l2.341,0l0,9.896c0,1.134 -0.254,1.945 -0.762,2.433c-0.508,0.489 -1.34,0.733 -2.496,0.733c-0.26,0 -0.602,-0.029 -1.025,-0.086c-0.424,-0.057 -0.75,-0.119 -0.98,-0.185l0.508,-2.027c0.442,0.175 0.898,0.263 1.37,0.263c0.472,0 0.764,-0.145 0.876,-0.435c0.112,-0.289 0.168,-0.768 0.168,-1.438l0,-9.154z" class="cls-2"/>
  <path fill="#45596b" fill-rule="evenodd" id="svg_4" d="m49,15.899l0,2.096l-13.813,0c-2.86,0 -4.179,-2.32 -4.179,-5.181l0,-12.814l2.092,0l15.9,15.899z" class="cls-3"/>
 </g>
</svg>