<svg xmlns="http://www.w3.org/2000/svg" xmlns:xlink="http://www.w3.org/1999/xlink" preserveAspectRatio="xMidYMid" width="172" height="44" viewBox="0 0 172 44">
  <defs>
    <style>
      .cls-1 {
        fill: #fff;
        fill-rule: evenodd;
      }
    </style>
  </defs>
  <path d="M169.953,6.698 L88.276,27.945 C87.984,28.021 87.690,28.000 87.427,27.906 L87.276,27.945 C87.011,28.014 86.744,28.001 86.500,27.928 C86.256,28.001 85.989,28.014 85.724,27.945 L85.573,27.906 C85.310,28.000 85.016,28.021 84.724,27.945 L3.047,6.698 C2.295,6.503 1.849,5.753 2.050,5.023 C2.251,4.293 3.024,3.860 3.776,4.055 L3.927,4.094 C4.190,4.000 4.484,3.979 4.776,4.055 L86.453,25.302 C86.470,25.306 86.484,25.314 86.500,25.319 C86.516,25.314 86.530,25.306 86.547,25.302 L168.224,4.055 C168.516,3.979 168.810,4.000 169.073,4.094 L169.224,4.055 C169.976,3.860 170.749,4.293 170.950,5.023 C171.151,5.753 170.705,6.503 169.953,6.698 Z" class="cls-1"/>
  <path d="M169.953,18.698 L88.276,39.945 C87.984,40.021 87.690,40.000 87.427,39.906 L87.276,39.945 C87.011,40.014 86.744,40.001 86.500,39.928 C86.256,40.001 85.989,40.014 85.724,39.945 L85.573,39.906 C85.310,40.000 85.016,40.021 84.724,39.945 L3.047,18.698 C2.295,18.503 1.849,17.753 2.050,17.023 C2.251,16.293 3.024,15.860 3.776,16.055 L3.927,16.094 C4.190,16.000 4.484,15.979 4.776,16.055 L86.453,37.302 C86.470,37.306 86.484,37.314 86.500,37.319 C86.516,37.314 86.530,37.306 86.547,37.302 L168.224,16.055 C168.516,15.979 168.810,16.000 169.073,16.094 L169.224,16.055 C169.976,15.860 170.749,16.293 170.950,17.023 C171.151,17.753 170.705,18.503 169.953,18.698 Z" class="cls-1"/>
</svg>
